<?xml version="1.0" encoding="UTF-8" standalone="no"?>
<!-- Created with Inkscape (http://www.inkscape.org/) -->

<svg
   width="512"
   height="512"
   viewBox="0 0 512 512"
   version="1.1"
   id="svg1"
   xml:space="preserve"
   xmlns:inkscape="http://www.inkscape.org/namespaces/inkscape"
   xmlns:sodipodi="http://sodipodi.sourceforge.net/DTD/sodipodi-0.dtd"
   xmlns="http://www.w3.org/2000/svg"
   xmlns:svg="http://www.w3.org/2000/svg"><sodipodi:namedview
     id="namedview1"
     pagecolor="#ffffff"
     bordercolor="#000000"
     borderopacity="0.25"
     inkscape:showpageshadow="2"
     inkscape:pageopacity="0.0"
     inkscape:pagecheckerboard="0"
     inkscape:deskcolor="#d1d1d1"
     inkscape:document-units="mm" /><defs
     id="defs1" /><g
     inkscape:label="Layer 1"
     inkscape:groupmode="layer"
     id="layer1"
     style="display:inline"><rect
       style="display:inline;fill:#111111;fill-opacity:1;stroke:#e6e434;stroke-width:0;stroke-linecap:round;stroke-linejoin:round;stroke-dasharray:none;stroke-opacity:1"
       id="rect1"
       width="512"
       height="512"
       x="5e-07"
       y="5e-07"
       inkscape:label="rect1"
       rx="61.949413"
       ry="61.949413" /><path
       id="path6008"
       style="display:inline;fill:#fffadf;fill-opacity:1;stroke:none;stroke-width:4.11298;stroke-opacity:1"
       inkscape:label="path6008"
       d="m 262.96875,55.619141 c -1.65034,-0.03033 -3.30465,0.100562 -4.9375,0.392578 -3.26571,0.588227 -6.38306,1.808508 -9.17578,3.597656 -11.73846,7.530872 -15.12236,23.130837 -7.55859,34.828125 33.05494,51.18953 45.99022,92.36072 47.7832,128.48242 l 46.875,-46.875 c 0.1421,-9.37667 1.37224,-18.38944 4.85351,-26.22461 6.64541,-14.33797 21.25964,-20.6319 42.52149,-21.15039 l 27.80273,-27.80273 c -1.27575,-12.715346 -11.90352,-22.683749 -24.98633,-22.695315 -33.94036,0 -59.6673,17.862653 -74.25195,39.443355 -7.62508,-16.28727 -16.91257,-33.072125 -28.13281,-50.445308 -3.62354,-5.614225 -9.33125,-9.559524 -15.875,-10.978516 -1.62052,-0.35163 -3.26763,-0.541933 -4.91797,-0.572265 z M 133.82617,99.21875 c -1.64635,-0.121713 -3.31193,-0.08262 -4.97461,0.123047 -6.65069,0.822333 -12.70128,4.242853 -16.81836,9.515623 -8.56324,10.9817 -6.58097,26.80905 4.4336,35.35156 24.58742,19.09675 32.70615,33.23361 35.48242,44.86914 2.77627,11.6357 0.54408,24.11843 -5.0332,41.26954 -7.12781,23.11499 -15.40361,43.74955 -19.03125,63.53711 -1.78503,9.7395 -1.93779,20.33991 -2.39844,28.80859 -17.70641,-17.25805 -24.63672,-40.04527 -24.63672,-73.33984 -0.004,-13.91011 -11.314583,-25.1878 -25.261719,-25.1836 -13.938896,0.0123 -25.234162,11.28173 -25.238282,25.1836 0,45.47325 13.298486,88.74243 48.9375,117.60742 7.654221,7.29219 18.148711,12.17947 29.646481,16.10547 l 52.13672,-52.13672 c -3.39346,-16.75307 5.56566,-41.15663 20.67578,-50.83985 13.69161,-8.54834 31.01934,-14.17448 44.82227,-14.6582 l 27.00781,-27.00781 c -0.90689,-13.0918 -11.72856,-23.45899 -25.08594,-23.45899 -16.44371,0 -32.57516,3.45623 -47.63281,9.33789 3.07653,-14.51481 4.21166,-30.20293 0.23438,-46.87695 -6.03786,-25.31961 -23.42048,-49.50332 -53.60157,-72.94726 -3.96388,-3.08471 -8.72501,-4.894631 -13.66406,-5.25977 z" /><path
       id="path2-1"
       style="display:inline;fill:#fffadf;fill-opacity:1;stroke:none;stroke-width:3.49111;stroke-opacity:1"
       inkscape:label="path2"
       d="m 401.16016,110.83984 -91.4668,91.4668 33.68945,-25.55664 v 158.50195 l -94.7539,-71.88086 -48.86133,48.86133 121.79687,111.05078 c 0.51058,0.51059 1.04608,0.96126 1.59766,1.36328 0.33892,0.27894 0.64952,0.6014 1.00195,0.85743 h 0.002 c 0.34747,0.25237 0.72838,0.43999 1.08789,0.66992 1.53058,0.97925 3.13855,1.80756 4.83593,2.37109 5.24324,1.74076 11.08281,1.46554 16.28907,-1.03906 l 71.91992,-34.58594 c 7.55754,-3.63423 12.36328,-11.27843 12.36328,-19.66406 v -0.0508 -0.83399 -232.74023 -0.83594 -0.0508 c 0,-8.38563 -4.80609,-16.02787 -12.36328,-19.66211 z" /></g></svg>
